# xmcd CD database file generated by Grip 2.93
# 
# Track frame offsets:
#       150
#       15812
#       37897
#       74212
#       97265
#       136692
#       162610
#       194502
# 
# Disc length: 2829 seconds
# 
# Revision: 3
# Processed by: cddbd v1.4b41PL1 Copyright (c) Steve Scherf et al.
# Submitted via: Grip 2.93
# 
DISCID=6c0b0b08
DTITLE=Souled american - Notes campfire
DYEAR=1900
DGENRE=
TTITLE0=Before tonight
TTITLE1=Set in
TTITLE2=Flat
TTITLE3=Born (free)
TTITLE4=Waterdown
TTITLE5=All my friends
TTITLE6=Deal
TTITLE7=Suitors bridge
EXTD=
EXTT0=
EXTT1=
EXTT2=
EXTT3=
EXTT4=
EXTT5=
EXTT6=
EXTT7=
PLAYORDER=
